<svg height='100px' width='100px'  fill="#000000" xmlns="http://www.w3.org/2000/svg" xmlns:xlink="http://www.w3.org/1999/xlink" version="1.1" x="0px" y="0px" viewBox="0 0 144 144" style="enable-background:new 0 0 144 144;" xml:space="preserve"><style type="text/css">
	.st0{fill:none;stroke:#000000;stroke-width:10;stroke-miterlimit:10;}
	.st1{fill:none;stroke:#000000;stroke-width:8.3041;stroke-miterlimit:10;}
	.st2{fill:none;stroke:#000000;stroke-width:11;stroke-miterlimit:10;}
</style><g><path d="M72,0C32.2,0,0,32.2,0,72c0,39.8,32.2,72,72,72c39.8,0,72-32.2,72-72C144,32.2,111.8,0,72,0z M30.4,96.5v-8   c12.7,0,19.8-6.2,26.8-14.2c0.6,0.7,1.2,1.4,1.8,2.1c1.1,1.3,2.2,2.7,3.4,4C54.9,88.9,45.7,96.5,30.4,96.5z M98.4,103.7v-7.2   c-18.9,0-28.6-11.7-37.1-21.9c-8.5-10.2-15.8-19-30.9-19v-8c18.9,0,28.6,11.7,37.1,21.9c8.5,10.2,15.8,19,30.9,19v-7.2l19.4,11.2   L98.4,103.7z M98.4,62.7v-7.2c-12.7,0-19.8,6.2-26.8,14.2c-0.6-0.7-1.2-1.4-1.8-2.2c-1.1-1.3-2.2-2.7-3.4-4c7.5-8.4,16.7-16,32-16   v-7.2l19.4,11.2L98.4,62.7z"></path></g></svg>